# xmcd
#
# Track frame offsets:
# 150
# 16725
# 41472
# 62172
# 80315
# 99890
# 122497
# 141390
#
# Disc length: 2128 seconds
#
# Revision: 0
# Processed by: cddbd v1.5.2PL0 Copyright (c) Steve Scherf et al.
# Submitted via: Audion 3.0.2 (http://www.panic.com/audion/)
#
DISCID=5a084e08
DTITLE=Waylon Jennings and the 357s - Waylon Forever
DYEAR=1900
DGENRE=
TTITLE0=Jack of Diamonds
TTITLE1=Outlaw Shit
TTITLE2=Ain't Livin' Long Like This
TTITLE3=Are You Ready for the Country?
TTITLE4=Lonesome On'ry and Mean
TTITLE5=Waymore's Blues
TTITLE6=White Room
TTITLE7=I Found the Body
EXTD=
EXTT0=
EXTT1=
EXTT2=
EXTT3=
EXTT4=
EXTT5=
EXTT6=
EXTT7=
PLAYORDER=
